<svg version="1.2" xmlns="http://www.w3.org/2000/svg" viewBox="0 0 1573 1530" width="1573" height="1530">
	<title>purple-svg</title>
	<style>
		.s0 { fill: #5f259f } 
	</style>
	<g id="Layer">
		<path id="Layer" fill-rule="evenodd" class="s0" d="m1251.2 955.6c6.4 2.5 12.7 3.8 19.1 6.4 17.9 5.1 35.7 11.4 53.5 17.8 26.8 10.2 53.6 19.1 80.3 28.1q11.5 3.8 23 7.6c0 0 0 0 1.2 0 1.3 0 1.3 1.3 1.3 1.3q1.9 3.8 0 11.4c-1.3 3.9-3.8 6.4-6.4 7.7-1.2 0-2.5 0-2.5 0-1.3 0-56.1-17.8-82.8-26.8-28.1-8.9-56.1-17.8-85.4-26.7-16.6-5.1-72.7-23-80.3-25.5-3.8 0-8.9 0-12.8 0 39.5 11.4 80.3 24.2 119.8 36.9 10.2 2.6 20.4 6.4 30.6 9 70.1 21.6 215.4 68.8 215.4 68.8 6.4 1.3 7.7 10.2 5.1 20.4 1.3 0 6.4 1.3 6.4 1.3 8.9 2.5 11.4 25.4 3.8 49.7-6.4 21.6-19.1 38.2-28 38.2-1.3 0-1.3 0-2.6 0 0 0-5.1-2.6-8.9-5.1-12.8-5.1-25.5-8.9-38.2-14-16.6-6.4-33.2-11.5-51-17.9-17.9-5.1-34.4-11.4-52.3-16.5-8.9-3.9-17.8-6.4-26.7-9-44.6-12.7-89.2-25.4-133.9-39.5-3.8-1.2-8.9-2.5-12.7-3.8-29.1-9.7-58.1-18.2-87.2-27.8q-0.4-0.7-0.7-1.5c-5.1-1.3-10.2-3.8-16.6-5.1q5.7 11.5 11.5 22.9c3.4 0.9 7.5 2.4 11.3 3.6q0.7 1.4 1.4 2.8c34.4 11.5 68.8 23 103.2 35.7 34.5 12.7 68.9 24.2 103.3 37-68.8-21.7-136.4-44.7-203.9-66.3 59.9 127.4 119.8 254.9 179.7 383.6-63.8-128.7-127.5-257.4-189.9-387.4-5.1-1.3-11.5-2.6-16.6-5.1 14 29.3 29.3 58.6 43.3 87.9 14 29.3 28.1 59.9 42.1 89.2 12.7 29.3 28 59.9 42 89.2 12.8 29.4 28.1 59.9 42.1 89.3 0 1.2-1.3 1.2-2.6 1.2-7.6 3.9-14 7.7-21.6 10.2 2.5 6.4 5.1 12.8 5.1 20.4 1.3 7.7-1.3 14-5.1 19.1-3.8 5.1-8.9 9-15.3 10.2-11.5 2.6-22.9-2.5-29.3-7.6-6.4-5.1-14-12.8-19.1-19.1-7.7-10.2-14.1-20.4-20.4-30.6-12.8-20.4-25.5-43.4-35.7-66.3-10.2-24.2-19.1-48.4-29.3-72.6 15.3 35.6 31.8 70.1 51 103.2-15.3-31.9-30.6-65-44.7-99.4 0-2.6-1.2-5.1-2.5-7.7-1.3-2.5-2.6-3.8-3.8-6.3-23-31.9-45.9-63.8-70.1-94.4 35.7 86.7 71.3 175.9 107 263.9 1.3 3.8-5.1 8.9-12.7 12.7-8.9 2.6-15.3 2.6-17.9 0 0 0-89.2-174.6-133.8-261.3 0 6.4 3.9 51 5.1 58.7 3.9 28 7.7 56 10.2 84.1 1.3 14 2.6 28 2.6 42q0 11.5 0 23 0 38.2 0 76.5c0 10.2 3.8 20.4 2.5 30.5-1.3 7.7-10.2 16.6-17.8 15.3-7.7 0-14-7.6-16.6-14-6.4-12.7-42-214.1-49.7-265.1-3.8-21.6-7.6-44.6-10.2-66.3-1.3-6.3-10.2-89.2-16.6-145.3q-1.9-9.5-3.8-19.1c0-2.5 0-5.1-1.3-7.6q-1.9-3.8-3.8-7.7c-1.3 1.3-2.5 2.6-2.5 2.6q-24.9 24.8-49.7 49.7c-34.4 34.4-68.8 70.1-103.3 104.5-16.5 16.6-33.1 34.4-50.9 52.3-12.8 12.7-25.5 26.7-38.3 39.5q-32.5 32.5-65 65c-34.4 34.4-70.1 68.8-104.5 103.2 0.8-0.7 1.3-1.3 1.3-1.3 123.6-130 248.5-258.7 373.4-387.4-17.8 14-35.7 29.3-53.5 43.3-15.3 11.5-30.6 24.2-45.9 37-2.5 2.5-5.1 3.8-7.6 6.3-5.1 5.1-9 9-14.1 14.1-7.6 6.3-15.3 14-21.6 20.4-1.3 1.2-3.8 3.8-6.4 6.3-14 14-28 26.8-42.1 40.8-8.9 8.9-19.1 17.9-28 26.8-5.1 5.1-8.9 8.9-14 14-8.9 8.9-19.1 17.8-28 26.8-5.1 5.1-9 8.9-14.1 14-14 14-28 26.7-42 40.8-14 14-28.1 26.7-42.1 40.8-5.1 5.1-8.9 10.1-14 14-5.1 3.8-8.9 10.2-12.7 15.3 0 1.2-1.3 1.2-1.3 2.5 0 1.3-1.3 1.3-1.3 2.6 0 1.2-1.3 1.2-1.3 2.5 0 1.3-1.2 1.3-1.2 2.6 0 1.2-1.3 1.2-1.3 2.5 0 1.3-1.3 1.3-1.3 2.6 0 1.2-1.3 1.2-1.3 2.5 0 1.3-1.2 1.3-1.2 2.6 0 1.2-1.3 1.2-1.3 2.5 0 1.3-1.3 1.3-1.3 2.6 0 1.2-1.3 1.2-1.3 2.5 0 1.3-1.2 1.3-1.2 2.6 0 1.2-1.3 1.2-1.3 2.5 0 1.3-1.3 1.3-1.3 2.6 0 1.2-1.3 1.2-1.3 2.5 0 1.3-1.2 1.3-1.2 2.6 0 1.2-1.3 1.2-1.3 2.5 0 1.3-1.3 1.3-1.3 2.6 0 1.2-1.3 1.2-1.3 2.5 0 1.3-1.2 1.3-1.2 2.5 0 1.3-1.3 1.3-1.3 2.6 0 1.3-1.3 1.3-1.3 2.5 0 1.3-1.3 1.3-1.3 2.6 0 1.3-1.2 1.3-1.2 2.5 0 1.3-1.3 1.3-1.3 2.6 0 1.3-1.3 1.3-1.3 2.5 0 1.3-1.3 1.3-1.3 2.6 0 1.3-1.2 1.3-1.2 2.5l-7.7 7.7c-1.2 0-1.2 1.3-1.2 1.3-1.3 0-1.3 1.2-1.3 1.2-1.3 0-1.3 1.3-1.3 1.3-1.3 1.3-1.3 1.3-1.3 1.3 0 1.3 0 1.3 0 1.3 0 1.2 0 1.2 0 1.2l-3.8 3.9c0 1.2-1.3 1.2-1.3 1.2 0 1.3-1.2 1.3-1.2 1.3 0 1.3-1.3 1.3-1.3 1.3h-14c0-1.3-1.3-1.3-1.3-1.3 0-1.3-1.3-1.3-1.3-1.3-1.3 0-1.3 0-1.3 0-7.6-7.6-7.6-20.4 0-29.3 0 0 3.9-2.5 5.1-3.8 7.7-7.7 16.6-16.6 24.3-24.2 10.1-8.9 19.1-17.9 29.3-28.1 3.8-5.1 8.9-8.9 14-14q1.9-1.9 3.8-3.8c11.5-14 21.7-30.6 33.1-45.9-11.4 8.9-24.2 19.1-35.6 28.1-34.5 28-68.9 56-104.5 84.1 0 0 0 1.2-1.3 1.2 0 0 0 0-1.3 0-3.8 1.3-7.6-1.2-11.5-6.3-2.5-3.8-2.5-7.7-2.5-10.2-3.8 2.5-11.5-1.3-16.6-7.7-5.1-6.3-6.4-12.7-3.8-16.5 0 0 1.3-1.3 2.5-2.6 10.2-8.9 20.4-16.6 30.6-25.5-2.5-1.3-3.8-5.1-3.8-6.4-2.5-7.6 0-20.3 3.8-25.4 1.3-1.3 5.1-5.1 6.4-6.4 12.7-12.8 28-26.8 40.8-39.5-5.1 1.2-12.8-3.8-19.1-11.5-7.7-8.9-10.2-19.1-6.4-22.9 0 0 2.5-1.3 3.8-2.6q11.5-9.5 23-19.1c-1.3-1.3-3.9-3.8-5.1-5.1 19.1-16.6 38.2-34.4 56-51-2.5-2.5-3.8-3.8-6.3-6.4 0 0 79-79 117.2-119.8-1.3 0-2.5 2.6-3.8 2.6 5.1-6.4 10.2-11.5 15.3-17.9 10.2-12.7 21.6-24.2 31.8-35.6 6.4-6.4 11.5-11.5 16.6-17.9 20.4-24.2 42.1-47.1 63.7-70.1-2.5 0-6.3-1.3-8.9-2.5l-2.5-1.3c-1.3 0-3.9 2.5-5.1 3.8-90.5 73.9-179.7 145.3-270.2 218-3.8 2.5-6.4 5.1-10.2 7.6-2.6 1.3-3.8 2.6-5.1 3.8-1.3 1.3-2.6 3.9-3.8 5.1-3.9 7.7-9 14-12.8 21.7-3.8 3.8-12.7 2.5-20.4-2.6-7.6-5.1-11.4-14-8.9-17.8 2.6-3.8 17.9-15.3 17.9-15.3 2.5-2.5 6.3-5.1 8.9-7.6 1.3-1.3 2.5-3.9 3.8-5.1 10.2-14.1 21.7-28.1 33.1-40.8 62.5-70.1 132.6-132.6 201.4-195-28-10.2-56.1-20.4-84.1-29.3-28.1-10.2-56.1-19.2-84.1-29.4-28.1-10.2-56.1-19.1-84.1-29.3-6.4-2.5-12.8-5.1-20.4-7.6-6.4-2.6-12.8-5.1-20.4-7.7-15.3-5.1-29.3-8.9-44.6-12.7 11.4 2.5 22.9 6.4 34.4 8.9-21.7-7.6-45.9-16.6-68.8-24.2-3.9-1.3-9-2.6-14.1-3.8-45.8-12.8-91.7-26.8-138.9-39.5-2.5 0-2.5-1.3-5.1-1.3 0 0-1.2 0-2.5 0-6.4-2.6-8.9-10.2-6.4-19.1 2.6-9 8.9-14.1 15.3-12.8 1.3 0 2.5 1.3 3.8 1.3 19.1 6.4 39.5 14 53.6 22.9 14 5.1 25.4 9 31.8 11.5 12.8 3.8 24.2 8.9 37 12.8 10.2 3.8 21.6 7.6 33.1 11.4 22.9 6.4 44.6 14 67.6 20.4 11.4 3.8 22.9 7.7 34.4 10.2-1.3-1.3-3.9-2.5-5.1-2.5-11.5-3.9-24.3-9-35.7-12.8-24.2-8.9-48.4-16.6-72.7-25.5-1.2-1.2-3.8-1.2-5.1-2.5-1.2-1.3 1.3 0 1.3 0 28.1 8.9 58.6 20.4 86.7 29.3 14 3.8 28 8.9 42 14 28.1 10.2 56.1 20.4 84.1 29.3q3.9-11.4 7.7-22.9c-89.2-26.8-179.7-53.5-270.2-80.3q-19.1-5.7-38.2-11.5c1.3-1.3 1.3-1.3 1.3-2.5 1.2-3.9 2.5-9 3.8-12.8 1.2-5.1 2.5-11.4 5.1-16.5-11.5-3.9-24.2-7.7-35.7-11.5-3.8-1.3-7.7-3.8-11.5-3.8-16.6-2.6-33.1-3.9-51-6.4h-2.5c-6.4-1.3-11.5-11.5-8.9-21.7 2.5-10.2 10.2-17.8 17.8-16.5h1.3c2.5 0 3.8 1.2 6.4 1.2 11.4 3.9 24.2 7.7 35.6 11.5 2.6 1.3 5.1 1.3 7.7 2.5 2.5 1.3 5.1 1.3 7.6 1.3 5.1 1.3 11.5 1.3 16.6 2.6 5.1 1.2 11.5 2.5 16.6 2.5 11.4 0 22.9 1.3 34.4 2.6 43.3 6.3 84.1 16.5 121.1 28 17.8 6.4 36.9 11.5 56 17.9 56.1 17.8 113.5 35.6 169.5 53.5-96.8-39.5-286.7-121.1-286.7-121.1 0 0 5.1-15.3 7.6-26.8 5.1 1.3 8.9 1.3 14 2.6 0 0-1.2-1.3-2.5-1.3-5.1-1.3-8.9-2.5-12.7-3.8q-5.8-1.9-11.5-3.8c-3.8-1.3-7.7-3.9-10.2-5.1-3.8-1.3-6.4-3.9-8.9-5.1-2.6-2.6-5.1-3.9-7.7-5.1-2.5-1.3-3.8-3.9-6.4-5.1-1.2-1.3-3.8-3.9-5.1-5.1-1.2-2.6-2.5-3.9-3.8-5.1-1.2-1.3-2.5-3.8-3.8-5.1-3.8-6.4-7.6-12.8-8.9-19.1-1.3-7.7-1.3-15.3 3.8-20.4 5.1-5.1 12.7-6.4 19.1-7.7 6.4-1.3 12.8 0 19.1 1.3 6.4 1.3 12.8 2.5 17.9 3.8 6.4 1.3 11.5 3.8 16.5 5.1 9 3.8 19.2 6.4 29.4 8.9-1.3-2.5 0-7.6 1.2-11.4 2.6-7.7 9-12.8 12.8-11.5 0 0 16.5 6.4 25.5 8.9 8.9 2.6 17.8 6.4 25.5 8.9-2.6-6.3 3.8-29.3 28-19.1 0 0 1.3 1.3 2.5 1.3 7.7 3.8 206.5 87.9 223.1 96.9 5.1 2.5 67.5 33.1 70.1 34.4 2.5 1.2 6.3 1.2 8.9 2.5 2.5 1.3 5.1 1.3 8.9 2.6 0-2.6 0-3.9-1.3-5.1-21.6-48.5-43.3-99.4-65-149.1 17.9 36.9 34.4 73.9 52.3 110.8 0-2.5-1.3-3.8-2.6-6.3-15.3-33.2-29.3-67.6-44.6-100.7-24.2-54.8-47.1-108.4-70.1-163.2-11.4-28-22.9-53.5-34.4-81.5 0-1.3-1.2-3.9-2.5-6.4 0-2.6-1.3-5.1-1.3-7.7 0-5.1 3.8-8.9 7.7-11.4 5.1-2.6 10.1-1.3 14 2.5 1.2 1.3 2.5 2.6 3.8 5.1 6.4 10.2 11.5 20.4 17.8 30.6q-11.4-28.7-22.9-57.3c-1.3-2.6-1.3-3.9-2.6-5.1-1.2 0-1.2-1.3-1.2-1.3-7.7-19.1-5.1-37 5.1-40.8 7.6-3.8 16.5 1.3 24.2 11.5-3.8-16.6-1.3-33.2 8.9-37 7.3-2.4 16.9 2.1 24.4 11.3-1.5-2.4-1.7-5.4-2.7-7.5 0-3.8-1.3-6.3-2.6-8.9-5.1-10.2-8.9-21.7-12.7-31.9-3.8-10.2-7.7-20.3-10.2-30.5-2.6-14.1 0-33.2 15.3-35.7 14-5.1 30.6 5.1 39.5 22.9 1.3 2.6 34.4 82.9 52.2 124.9 1.3-1.3 2.6-1.3 5.1-2.5 1.3 0 1.3 0 1.3 1.2 26.8 57.4 54.8 113.5 81.6 170.8 0-2.5-1.3-3.8-1.3-5.1-20.4-47.1-40.8-94.3-62.4-141.4 27.9 59.4 55.8 120 83.7 179.6q-16.4-38.2-32.8-76.4c-36.9-85.4-73.9-169.5-110.8-254.9 0 0 1.2 0 0 0q2.3-1 4.6-2.1c-0.5 0.8 0.5 1 0.5 2.1 0 0 0 2.5 1.2 2.5 12.8 30.6 25.5 61.2 38.3 90.5q-17.2-42-34.5-84.1c-1.2-3.8-2.5-6.4-3.8-10.2l-1-1c4.7-2.2 9.2-4.3 13.9-6.4-0.1 0.1-0.1 0.5-0.1 1 1.2 1.3 1.2 2.6 1.2 2.6 3.9 8.9 9 19.1 12.8 28 5.1 11.5 10.2 23 15.3 33.2 29.3 66.2 58.6 131.2 87.9 197.5 0-3.8-1.3-7.6-1.3-11.5q0-1.9 0-3.8c-1.2-1.3-2.5-2.5-2.5-3.8-3.8-8.9-8.9-17.8-12.7-26.8-19.2-42-38.3-82.8-57.4-123.6-12.7-30.6-26.8-59.9-40.8-89.2 0-1.3 0-2.6-1.3-3.8q-0.4 0-0.7 0 2.9-1.3 5.8-2.6c14.1 29.3 26.8 59.9 42.1 88-12.7-30.6-26.8-59.9-39.5-89.3 0 0-1.3 0 0 0 30.6 65 61.2 131.3 90.5 196.3 3.8 10.2 7.6 19.1 12.7 28.1-1.3-19.2-3.8-37-6.4-56.1-3.8-33.2-6.3-66.3-11.4-99.4-2.6-14.1-5.1-28.1-2.6-42.1 1.3-10.2 9-24.2 17.9-30.6 7.6-6.4 17.8-10.2 30.6-7.6 14 2.5 25.4 15.3 21.6 34.4 7.7 11.5 12.8 25.5 15.3 39.5 6.4 26.8 11.5 53.5 16.6 80.3 5.1 28 10.2 56.1 14 84.1 1.3-5.1 2.6-11.5 2.6-16.6 1.2-2.5 0-6.3 0-8.9-2.6-38.2-6.4-110.9-6.4-114.7 1.3-20.4 12.7-35.7 26.7-35.7 14.1 1.3 24.3 17.9 24.3 38.3 0 2.5-11.5 105.7-16.6 158-1.3 1.3-1.3 3.8-1.3 6.4 0 1.2 0 3.8 0 6.3 1.3 52.3 5.1 103.3 7.7 154.3 0 19.1 1.2 36.9 2.5 56 0 9 1.3 19.2 1.3 28.1 0 8.9 0 19.1 1.3 28 0 1.3 1.2 3.8 2.5 5.1 1.3 5.1 3.8 8.9 6.4 14q0-1.9 0-3.8c0-1.3 0-1.3 0-2.5 0-1.3 0-1.3 0-2.6 0-1.3 0-1.3 0-2.5 0-1.3 0-1.3 0-2.6 0-1.3 0-1.3 0-2.5 0-1.3 0-1.3 0-2.6 0-1.2 0-1.2 0-2.5 0-1.3 0-1.3 0-2.6 0-1.2 0-1.2 0-2.5 0-1.3 0-1.3 0-2.6 0-1.2 0-1.2 0-2.5 0-1.3 0-1.3 0-2.6 0-1.2 0-1.2 0-2.5 0-1.3 0-1.3 0-2.6 0-1.2 0-1.2 0-2.5 0-1.3 0-1.3 0-2.6 0-1.2 0-1.2 0-2.5 0-1.3 0-1.3 0-2.6 0-1.2 0-3.8 0-5.1 0-1.2 0-1.2 0-2.5 0-1.3 0-1.3 0-2.6 0-1.2 0-1.2 0-2.5 0-1.3 0-1.3 0-2.6 0-1.2 0-1.2 0-2.5 0-1.3 0-1.3 0-2.6 0-1.2 0-1.2 0-2.5 0-1.3 0-1.3 0-2.6 0-1.2 0-1.2 0-2.5 0-1.3 0-1.3 0-2.6 0-1.2 0-1.2 0-2.5 0-1.3 0-1.3 0-2.6 0-1.2 0-3.8 0-5 0-1.3 0-1.3 0-2.6 0-1.3 0-3.8 0-5.1 0-1.3 0-3.8 0-5.1 0-1.3 0-3.8 0-5.1 0-1.3 0-1.3 0-2.5 0-1.3 0-1.3 0-2.6 0-1.3 0-1.3 0-2.5 0-1.3 0-1.3 0-2.6 0-1.3 0-1.3 0-2.5 0-1.3 0-1.3 0-2.6 0-1.3 0-1.3 0-2.5 0-1.3 0-1.3 0-2.6 0-1.3 0-1.3 0-2.5 0-1.3 0-3.9 0-5.1 0-1.3 0-1.3 0-2.6 0-1.3 0-1.3 0-2.5 0-1.3 0-1.3 0-2.6 0-1.3 0-1.3 0-2.5 0-1.3 0-19.1 0-20.4 0-1.3 0-1.3 0-1.3 0-1.3 0-1.3 0-1.3 0-1.2 0-1.2 0-1.2 0-1.3 0-1.3 0-1.3 0-1.3 0-1.3 0-1.3 0-1.3 0-2.5 0-2.5 0-1.3 0-1.3 0-1.3 0-1.3 0-1.3 0-1.3 0-1.3 0-1.3 0-2.5 1.3-1.3 1.3-1.3 1.3-2.6 0-1.3 1.2-2.5 1.2-2.5l1.3-1.3c1.3 0 1.3-1.3 2.6-1.3 1.2 0 1.2-1.3 2.5-1.3 1.3 0 1.3-1.2 2.6-1.2 1.2-1.3 1.2-1.3 2.5-1.3 0 0 3.8 0 5.1 0 11.5 0 20.4 5.1 20.4 12.7-1.3 33.2-1.3 67.6-2.6 100.7 2.6 0 3.9 0 6.4 0 7.7 0 14 2.6 14 5.1 0 2.6 1.3 45.9 1.3 68.8l1.3-1.2c33.1-29.3 66.3-59.9 100.7-89.2 17.8-14.1 34.4-29.4 52.2-44.7 17.9-15.3 35.7-29.3 52.3-44.6-10.2 6.4-19.2 12.8-29.3 20.4 3.8-3.8 7.6-6.3 11.4-10.2q17.2-15.3 34.4-30.6c7.7-6.3 15.3-14 23-20.4 7.6-6.3 15.3-14 22.9-20.3q17.2-15.3 34.4-30.6c5.1-3.9 7.7-7.7 11.5-11.5 12.7-12.7 24.2-25.5 37-39.5 1.2-1.3 3.8-3.8 5.1-5.1 8.9-6.4 20.3-7.7 25.4-1.3 6.4 5.1 3.9 15.3-2.5 23 0 1.2 0 1.2 0 1.2-2.6 2.6-6.4 5.1-8.9 7.7 2.5-2.6 10.2-7.7 10.2-7.7 6.3-3.8 11.4-6.3 19.1-8.9 3.8-1.3 8.9-2.5 12.7-1.3 3.8 0 7.7 1.3 10.2 3.9 1.3 1.2 1.3 1.2 2.6 2.5 2.5 3.8 6.3 7.7 6.3 12.8 0 2.5 0 3.8 0 6.3 0 6.4-2.5 12.8-6.3 19.1-1.3 2.6-3.9 5.1-6.4 7.7-6.4 7.6-12.7 14-20.4 21.7-47.1 47.1-95.6 95.5-142.7 142.7-38.3 37-76.5 75.2-114.7 113.4-3.9 5.1-9 9-14 14.1-3.9 5.1-9 8.9-14.1 14-5.1 3.8-8.9 8.9-14 14-3.8 5.1-8.9 8.9-14 14-20.4 17.9-39.5 37-58.6 56.1q9.7-8.4 19.5-16.9c-5.2 5.2-10.2 10.3-15.1 15.5q11.5-11.1 23-22.4c17.6-15.5 35.2-31.2 52.9-46.3 35.6-30.6 71.3-62.5 107-93 1.3 0 2.6-1.3 3.8-2.6 25.5-22.9 51-44.6 76.5-67.5 26.8-23 53.5-47.2 80.3-70.1 17.8-15.3 34.4-30.6 54.8-44.7 2.5-1.2 5.1-3.8 7.6-5 6.4-5.1 12.8-9 21.7-10.2 1.3-1.3 3.8-1.3 5.1-1.3 3.8 0 6.4 2.5 8.9 3.8 2.6 1.3 5.1 2.6 6.4 5.1 2.5 2.6 3.8 5.1 5.1 7.6 1.3 2.6 1.3 7.7 0 11.5-1.3 6.4-3.8 11.5-7.7 16.6-3.8 5.1-6.3 10.2-10.1 14-7.7 8.9-15.3 19.1-23 26.8-8.9 8.9-17.8 16.5-26.8 24.2 9-6.4 19.2-12.8 30.6-17.9 19.2-7.6 39.5-15.2 58.7-22.9-1.5 0.3-3.1 0.7-4.7 1.3 24.3-8.7 48.8-17.2 78.6-20.4 3.8 0 7.6 0 11.4 1.3 7.7 1.2 12.8 5.1 16.6 10.2 2.6 2.5 3.8 5.1 5.1 8.9-2.5-3.8-5.1-7.7-8.9-10.2-1.3-1.3-3.8-3.8-5.1-3.8q-1.3 0-2.7 0 1.4 0.6 2.7 1.2c2.5 0 3.8 2.6 5.1 3.9 3.8 3.8 8.9 10.2 8.9 17.8 0 6.4-2.5 12.7-6.4 16.6-8.9 7.6-17.8 14-29.3 20.4-1.2 1.2-5.1 2.5-7.6 3.8 2.5 0 3.8 1.3 5.1 1.3 0 0 3.8-1.3 5.1-2.6 1.3 0 2.5-1.3 3.8-1.3 0 0 1.3-1.2 2.6-1.2q2.8-1.4 5.6-2.9-0.3 0.1-0.6 0.3c-6.3 3.8-12.7 7.7-19.1 10.2 5.1 1.3 7.7 5.1 10.2 8.9 1.3 3.9 2.6 10.2 0 15.3-1.2 5.1-5.1 7.7-8.9 10.2-3.8 1.3-7.6 3.8-11.5 6.4-16.5 8.9-31.8 19.1-44.6 30.6 6.4-2.6 12.8-7.7 19.1-11.5 9-5.1 19.2-11.5 29.4-16.6 3.8-1.2 6.3-2.5 10.2-5.1 2.5-1.2 3.8-2.5 5.1-3.8 2.5-2.5 5.1-5.1 6.3-8.9 0-1.3 1.3-3.8 1.3-5.1 0-5.1-1.3-8.9-2.5-12.7-1.3-3.9-3.9-6.4-6.4-9 5.1 2.6 7.6 7.7 8.9 14.1 1.3 7.6-1.3 14-3.8 19.1-3.8 5.1-8.9 7.6-14 10.2-15.3 7.6-29.4 16.5-43.4 26.7-5.1 3.9-8.9 6.4-14 10.2-14 10.2-26.8 20.4-40.8 30.6-26.7 20.4-53.5 40.8-79 62.5-16.6 14-31.9 26.7-48.4 40.8-1.3 1.2-1.3 1.2-2.6 2.5-1.2 1.3-1.2 1.3-1.2 1.3-7.7 7.6-16.6 14-25.5 21.7-16.6 14-34.4 29.3-51 43.3-21.7 17.8-42.1 36.9-63.7 54.8-3.9 2.5-7.7 6.4-12.8 10.2l1.3-1.3c2.5-3.8 6.4-7.6 10.2-10.2 11.5-11.5 22.9-21.7 35.7-33.1 15.3-15.3 31.8-29.3 47.1-44.6q-7.6 5.7-15.3 11.4c38.3-34.4 77.8-67.5 117.3-100.6-48.4 39.5-96.9 79-145.3 119.8 20.4-17.9 39.5-34.5 59.9-52.3 30.6-25.5 59.9-52.3 90.5-77.7 2.5-2.6 6.4-5.1 8.9-7.7q21-17.2 42.1-34.4c20.4-16.6 42-33.1 63.7-48.4q5.7-3.9 11.5-7.7c10.2-7.6 21.6-15.3 33.1-22.9 6.4-3.9 11.5-6.4 17.8-10.2 0 0 1.3 0 2.6-1.3l1.3-1.3c1.2-1.2 2.5-1.2 2.5-2.5 1.3-3.8 0-8.9-1.3-11.5-1.2-1.3-2.5-1.3-3.8-2.5 0-1.3-1.3-1.3-1.3-1.3-3.8-1.3-7.6 1.3-10.2 2.5-21.6 10.2-43.3 21.7-63.7 31.9-24.2 12.7-47.1 25.5-71.4 38.2-35.6 19.2-70 39.5-105.7 58.7-6.4 3.8-11.5 6.3-17.9 10.2-5.1 2.5-10.2 7.6-15.3 11.4 45.9-25.5 91.8-49.7 138.9-75.2 12.8-6.3 24.3-11.4 35.7-17.8 11.5-6.4 24.2-11.5 35.7-17.9q19.1-9.5 38.2-19.1c0-1.2 1.3-1.2 1.3-1.2 1.3-1.3 3.8-1.3 5.1-2.6 8.9-5.1 17.9-8.9 26.8-14v1.3c2.5 0 3.8-1.3 6.4-1.3 1.2 2.5 0 6.4 0 8.9-1.3 0-2.6 1.3-2.6 1.3-1.3 1.3 0 0 0 1.3-3.8 1.2-7.6 2.5-11.5 5.1-6.3 2.5-11.4 6.3-17.8 10.1-8.9 5.1-17.8 11.5-26.8 17.9-35.7 24.2-68.8 51-101.9 77.7-16.6 14.1-33.2 26.8-49.7 40.8-31.9 26.8-65 53.6-96.9 81.6-31.8 28-65 54.8-96.8 82.8 59.9 21.7 217.9 76.5 217.9 76.5 5.1 2.6 6.4 15.3 2.5 29.3-3.8 14-14 23-19.1 21.7-70.1-24.2-177.1-61.2-245.9-86.7-9 7.7-16.6 14-24.3 21.7 45.9 21.7 93.1 43.3 139 65 6.3 3.8 11.4 6.4 17.8 8.9 108.3-1.3 285.5-1.3 355.6 10.2 71.3 12.8-116 25.5-305.9 30.6zm-152.2 92q5.4 10.7 10.7 21.4c-1.6-0.4-3.4-0.9-5.2-1.5-3.3-7-6.7-14.7-10.1-21.4q2.3 0.8 4.6 1.5zm460.6-661.7c1.3 2.5 2.6 3.8 2.6 6.4 0 2.5 0 6.3 0 8.9-2.2 14.1-12.7 21.8-23.7 27.7 3.7-2.5 8.5-5 12.2-8.6q1.9-1.9 3.8-3.8c2.6-2.6 3.8-5.1 5.1-9 1.3-2.5 2.6-6.3 2.6-10.1 0-3.9-1.3-7.7-2.6-11.5zm-116.5 1.7c-3.5 1.3-7 2.7-9.7 3.4q4.9-1.7 9.7-3.4zm-687.7-27.2q0.2 0.2 0.4 0.4-1-2.1-2-4.3 0.8 1.9 1.6 3.9zm2.6 5.1q-0.8-1.6-1.5-3.2c0.4 1.2 0.7 2.4 1.5 3.2zm-189.9-243.4q-0.6-0.8-1.1-1.5 0.4 0.8 1.1 1.5zm879.8 263.8q-2.4 0.8-4.8 1.7c1.6-0.6 3.2-1.2 4.8-1.7zm-691.4-23.6c-0.2-0.5-0.4-1-0.7-1.5q0.4 0.8 0.7 1.5zm-722.4 358.8c26.8 7.6 52.3 16.6 79 22.9-1.3 1.3-1.3 0-2.5 0-23-6.3-48.5-14-72.7-20.4 0-1.2-1.2-1.2-2.5-1.2-1.3 0-2.6 0-1.3-1.3zm1152.1-84.1c-5.1 2.5-8.9 5.1-12.7 7.6-17.9 14-37 29.3-54.8 44.6-3.9 2.6-6.4 6.4-10.2 8.9-7.7 6.4-14.1 12.8-21.7 19.2-10.2 8.9-21.7 19.1-31.9 28-2.5 2.5-6.3 5.1-8.9 7.6-1.3 0-1.3 1.3-1.3 1.3 20.4 6.4 39.5 14 59.9 20.4 1.3 0 1.3 0 2.6-1.3 25.5-22.9 52.2-44.6 77.7-67.5 53.6-47.2 107.1-93.1 163.2-137.7 24.2-19.1 48.4-38.2 73.9-57.3 3.8-2.6 7.6-5.1 10.2-7.7-84.1 44.6-167 88-246 133.9zm-787.6 187.3c-8.4-2.1-16.8-5-25.2-7.4q1.1 0.5 2.3 1c5.1 1.3 10.2 2.6 16.5 5.1 2.6 1.3 5.1 1.3 7.7 2.6 0-1.3-1.3-1.3-1.3-1.3zm-25.2-7.4c-1.8-0.9-3.6-1.5-5.4-1.5q2.7 0.7 5.4 1.5zm478.9-363.5c0 1.3 1.3 2.6 1.3 3.9 3.8 8.9 7.6 16.5 11.4 24.2 0-5.1 0-10.2-1.2-15.3-3.9-15.3-5.1-31.9-7.7-47.2-1.3 6.4-1.3 11.5-2.5 17.9 0 3.8-1.3 8.9-1.3 12.7q0 1.9 0 3.8zm-3.8 42.1c6.3 14 12.7 28 19.1 40.8-1.3-6.4-1.3-11.5-1.3-16.6 0-1.3 0-3.8 0-5.1-1.3-1.3-1.3-2.5-2.5-3.8-5.1-10.2-10.2-21.7-15.3-31.9 0 2.6-1.3 7.7-1.3 10.2 0 2.6 0 3.8 1.3 6.4zm-7.7-171.7q-0.1 1.5-0.3 3 0.2-1.1 0.3-2.1 0-0.5 0-0.9zm-2.2 21.2c-2.1 17.7-4.4 35.9-6.7 53.6-1.3 2.6-1.3 5.1-1.3 6.4 0 0 1.3 1.3 1.3 2.5q1.9 3.9 3.8 7.7c2.6-25.5 5.1-52.3 7.7-77.8 0-5.1 1.3-11.4 0-15.2-2.6 22.9-6.4 47.1-8.9 70.1 1.2-12.8 2.5-25.5 3.8-39.6 0-2.5 0.1-5.1 0.3-7.7zm3-28.5c0.2-2.1 0.5-4.1 0.5-5.8q-0.3 2.9-0.5 5.8zm-1.1 10.3c-0.8 5.8-1.6 12.1-1.9 18.2q1-9.2 1.9-18.2zm0.3-3q0.4-3.7 0.8-7.3c-0.4 2.3-0.7 4.8-0.8 7.3zm-17.8 113.1c0-3.9 1.3-9 1.3-12.8-12.8-24.2-24.3-49.7-37-75.2 1.3 6.4 1.3 12.8 2.5 19.1 10.2 23 21.7 47.2 33.2 68.9zm-29.2-35.5c1.1 2.5-0.1 5 1.1 7.4 0 1.3 1.3 2.6 1.3 3.8 6.4 17.9 14 34.5 21.7 51 0-1.2 1.3-3.8 1.3-6.3-8.9-17.8-16.5-36.8-25.4-55.9zm-0.1-0.2q0 0.1 0.1 0.2-0.1-0.1-0.1-0.2zm-30.6-206.5q3.8 34.4 7.6 68.8c0 2.6 0 3.8 0 5.1 0 0 1.3 1.3 1.3 2.6 2.6 7.6 6.4 14 8.9 20.4-3.3-29.7-6.6-58.9-9.9-87.8q1.2 8.1 2.3 16.4c2.5 22.9 6.4 47.1 8.9 70.1 0 3.8 0 7.6 1.3 10.2 0 2.5 1.3 3.8 2.5 6.4 14 30.5 29.3 62.4 43.4 91.7 3.8-30.6 7.6-63.7 11.4-94.3 1.3-2.5 1.3-3.8 1.3-6.4 0-2.5-1.3-6.3-1.3-8.9-3.8-22.9-6.3-44.6-10.2-66.3-3.8-25.5-8.9-49.7-14-73.9-5.1-24.2-11.5-47.1-17.8-70.1-2.6-5.1-3.9-11.5-5.1-16.6-2.6-6.3-3.9-11.4-6.4-16.5-3.8-7.7-12.7-21.7-22.9-21.7-6.4 0-12.8 3.8-15.3 8.9-3.9 6.4-5.1 14.1-3.9 20.4 1.3 20.4 3.9 39.5 6.4 59.9 0 3.8 0.7 7.5 1.1 11.3-0.2-1-0.5-1.8-1.1-2.3 1.3 24.2 3.8 49.7 11.5 72.6zm-10.2-66.3q0-2-0.2-4c0.2 1.2 0.2 2.6 0.2 4zm11.3 20.7c-0.6-3.9-1.1-7.8-1.1-11.8q0.5 5.9 1.1 11.8zm1.4 7.4q2.7 23.6 5.4 47.3c-2.5-18.4-4.9-36.3-6.8-54.7 0.4 2.4 0.9 4.9 1.4 7.4zm6.4 159.3c0 5.1 1.3 11.5 1.3 16.5 3.8 7.7 6.4 15.3 10.2 21.7 0-5.1-1.3-10.2-1.3-16.6-3.8-6.3-7.6-14-10.2-21.6zm6.4-8.9c0-3.9-1.3-9-1.3-12.8-2.5-7.6-6.4-15.3-10.2-22.9 0 6.3 1.3 11.4 1.3 16.5 3.8 6.4 6.4 14.1 10.2 19.2zm2.5 3.8c1.3 2.5 1.3 5.1 1.3 6.4 0 1.2 1.3 3.8 2.6 5.1 3.8 8.9 8.9 17.8 12.7 25.4 2.5 3.9 3.8 6.4 5.1 9 1.3 0 1.3 0 1.3 0-7.7-17.9-15.3-34.4-23-51 0 1.3 1.3 3.8 0 5.1zm39.5 160.6c2.6 3.8 3.9 6.3 5.1 10.2 0-2.6 1.3-5.1 1.3-7.7-2.5-3.8-3.8-7.6-5.1-10.2 0 2.6 0 5.1-1.3 7.7zm10.2-16.6c0-3.8 1.3-8.9 1.3-12.7-2.5-3.9-3.8-7.7-5.1-10.2-1.3 1.2-1.3 3.8-1.3 6.3-1.2 1.3-1.2 5.1-1.2 6.4 0 1.3 1.2 1.3 1.2 2.6 1.3 2.5 2.6 5.1 5.1 7.6zm-215.1-431.8q-0.3 0.1-0.7 0.2 0.2-0.2 0.5-0.5zm14.3-6.5q-0.2 0.1-0.4 0.2 0.1-0.2 0.4-0.2zm146 354.3c3.8 7.6 6.4 14 10.2 21.6 0-1.2 0-2.5 0-5.1-2.5-6.3-5.1-14-8.9-20.4 0 1.3 1.3 2.6-1.3 3.9zm-89.2-67.6c0 1.3 0 1.3 1.3 3.8q1.3 3.2 2.5 6.3c0-2.5-2.5-7.6-3.8-10.1zm3.8 10.2q0.7 1.7 1.5 3.5-0.8-1.8-1.5-3.6 0 0.1 0 0.1zm1.5 3.5c28 69.2 57.2 137.5 85.2 208.1-1.3-3.8-1.3-5.1-1.3-7.7 0-1.2-1.3-2.5-1.3-3.8-3.8-8.9-6.3-16.5-10.2-24.2-24.9-57.5-48.7-115-72.4-172.4zm31.7 572.6c2.5 1.3 5.1 1.3 6.3 2.6 3.9-3.9 7.7-6.4 10.2-10.2 1.3 0 1.3-1.3 1.3-1.3-1.3-1.3-3.8-1.3-6.4-2.6-3.8 2.6-6.3 6.4-8.9 9 0 0-2.5 1.2-2.5 2.5zm5.1-12.7c-2.6 3.8-6.4 6.3-9 10.2 0 0-1.2 0-1.2 1.2l1.2-1.2c3.9-3.9 7.7-7.7 9-10.2zm-84.2-455c-10.1-21.7-20.3-43.4-31.8-65-10.2-20.4-20.4-42.1-30.6-62.5 0 0-1.3-2.5-1.3-1.3 17.9 47.2 37 91.8 56.1 137.7 2.6 5.1 5.1 11.4 7.6 16.5 2.6 5.1 6.4 10.2 9 15.3 16.5 30.6 34.4 62.5 52.2 91.8-3.8-11.5-8.9-22.9-14-34.4-5.1-10.2-10.2-21.7-15.3-33.1-10.2-23-20.4-44.7-31.9-65zm39.6-122.4c0 1.3 1.2 2.5 1.2 2.5 0 0 0-1.2-1.2-2.5zm-11.5 105.8q13.4 32.5 26.8 65c5 10.2 8.9 21.7 14 31.8q7.6 15.3 15.3 30.6c-9-21.6-16.6-44.6-26.8-65-10.2-21.6-19.1-42-29.3-62.4zm-93-331.4c5.1 10.2 10.1 20.4 14 30.6 2.5 5.1 3.8 10.2 6.3 15.3q9.6 22.9 19.2 45.9 3.8-1.9 7.6-3.9c-17.8-42-35.7-81.5-53.5-122.3h-1.3c7.7 19.1 14 37 20.4 56.1-1.3-1.3-1.3-3.9-2.6-6.4-6.3-16.6-12.7-33.1-19.1-48.4 0 12.7 3.9 22.9 9 33.1zm30.5 86.7c1.3 1.2 1.3 5.1 2.6 6.3 0 1.3 0 1.3 1.3 1.3 1.2-1.3 1.2 0 1.2-1.3v-1.2c-1.2-2.6-2.5-5.1-2.5-6.4-16.6-39.5-33.1-77.7-49.7-116 16.6 38.3 33.1 76.5 47.1 117.3zm-53.5 170.8c-3.8-9-7.6-19.2-11.5-28.1-2.5-7.6-7.6-15.3-11.4-22.9 0 0 0-1.3-1.3-2.6 8.9 17.9 16.6 35.7 24.2 53.6zm140.2 303.3c1.3 0 1.3 1.3 2.6 1.3 1.2 0 0-1.3 0-1.3-2.6-6.4-6.4-12.7-9-19.1-36.9-77.8-71.3-160.6-104.5-240.9-1.2-3.8-3.8-6.4-5.1-10.2-10.2-19.1-21.6-39.5-31.8-58.6 47.1 110.9 95.5 221.7 147.8 328.8zm-138.9 30.6c-44.6-12.8-90.5-23-137.7-33.1 3.9 2.5 9 3.8 12.8 6.3 11.5 6.4 22.9 11.5 34.4 17.9 0 0 1.3 1.2 2.6 1.2 11.4 6.4 24.2 12.8 38.2 17.9 5.1 2.5 11.5 3.8 16.6 2.5 21.6 11.5 45.8 23 68.8 33.2 8.9 3.8 16.5 6.3 24.2 10.2 12.7 5.1 24.2 10.2 35.7 15.3 3.8 2.5 6.3 3.8 10.2 5.1l28-17.9q-49.7-22.9-99.4-45.9c-5.1-2.5-11.5-5.1-16.6-7.6-6.3-1.3-12.7-3.8-17.8-5.1zm104.5 96.9c-1.3 1.2-1.3 1.2-2.6 1.2 3.9 1.3 6.4 2.6 10.2 3.9 5.1 2.5 9 3.8 12.8 5.1-6.4-3.9-12.8-7.7-20.4-10.2zm-207.2-171.9c8.8 3.8 18.8 8.8 27.5 12.5-2.6-2.5-6.4-5.1-8.9-7.6 0-1.3-1.3-2.6-2.6-2.6-1.2 0-3.8 0-5.1-1.2-2.5 0-3.8-1.3-5.1-1.3-1.2 0-3.4 1.1-5.8 0.2zm-0.5-0.2q0.2 0.1 0.5 0.2-0.3-0.1-0.5-0.2zm-104.5-21.7c-3.9-1.2-7.7-2.5-12.8-3.8q-5.7-1.9-11.5-3.8c51 21.6 95.6 42 95.6 42l-82.8-6.3c1.3 1.2 2.5 2.5 3.8 2.5 2.6 0 5.1 1.3 7.7 1.3 40.7 7.6 80.2 15.3 119.8 22.9-24.3-11.4-47.2-22.9-71.4-33.1-8.9-3.8-16.6-7.7-24.2-11.5-7.7-3.8-15.3-7.6-24.2-10.2zm-89.3-62.4c2.6 1.2 6.4 2.5 9 3.8 5.1 1.3 8.9 3.8 12.7 5.1 1.3 0 2.6 0 3.8 1.3 3.9 1.2 6.4 2.5 9 3.8 2.5 0 6.3 1.3 10.1 1.3 2.6 1.2 3.9 1.2 7.7 2.5-1.3 0 0 0-1.3 0q13.4 3.8 26.8 7.7c3.8 1.2 6.4 2.5 8.9 2.5-20.4-7.6-42.1-15.3-63.7-22.9-6.4-2.6-15.3-6.4-23-5.1zm155.5 156.7q61.2 24.9 122.4 49.7l-80.3-36.9-73.9-30.6-3.9-1.3-34.4-22.9c-3.8-1.3-8.9-1.3-12.7-1.3-5.1 0-10.2 0-14-1.3-6.4-1.2-11.5-3.8-16.6-6.3l-30.6-6.4c-3.8 0-6.4-1.3-8.9-1.3 44.6 19.1 89.2 37 132.5 56.1 14.1 6.4 29.3 12.7 43.4 19.1-6.4-5.1-15.3-8.9-21.7-12.7 0 0-1.3-1.3-1.3-3.9zm68.8 142.8c6.4 2.5 11.5 3.8 17.9 5.1 1.3 0 1.3 0 1.3 0q-13.4-3.8-26.8-7.7c-2.6-1.2-6.4-2.5-8.9-2.5 5.1 1.3 10.2 3.8 16.5 5.1zm1.3 1.3c43.3 15.3 85.4 29.3 128.7 45.8 1.3-1.2 5.1-3.8 6.4-5v-1.3c-44.6-14-90.5-26.8-135.1-39.5zm90.5 80.3c1.3-1.3 1.3-1.3 2.6-2.6-16.6-3.8-31.9-8.9-47.2-12.7 14 5.1 29.3 10.2 44.6 15.3zm31.9 22.9c-6.4-3.8-12.8-5.1-19.2-7.6-2.5 2.5-6.3 5.1-8.9 7.6-8.9 8.9-17.8 16.6-26.7 25.5q-17.2 17.2-34.4 34.4c-2.6 3.8-6.4 6.4-9 8.9-3.8 3.9-6.3 6.4-8.9 8.9-17.8 16.6-34.4 34.5-52.2 51 53.5-43.3 105.7-85.4 159.3-128.7zm15.3-12.7c-7.7-2.6-15.3-3.9-23-6.4 0 1.3-2.5 2.5-2.5 3.8 6.3 1.3 14 3.8 20.4 6.4 2.5-1.3 3.8-2.6 5.1-3.8zm25.4-91.8q5.8 1.9 11.5 3.8c2.6 0 2.6 0 3.8-1.3-79-25.5-159.3-49.7-239.6-73.9 59.9 20.4 119.8 38.3 179.7 57.4 14.1 3.8 29.4 8.9 44.6 14zm10.2 62.4c3.9-2.5 6.4-5.1 10.2-7.6q-13.3-3.8-26.7-7.7c-1.3 1.3-3.8 3.9-5.1 5.1 0 0-1.3 0-1.3 1.3 7.6 2.6 15.3 5.1 22.9 8.9zm-1.2 47.2c1.2-2.5 3.8-3.8 5.1-6.4-2.6-1.2-6.4-1.2-9-2.5-2.5 1.3-3.8 2.5-6.3 5.1 2.5 1.3 6.3 2.5 10.2 3.8zm-327.6 485.6c38.3-30.6 77.8-61.2 116-91.8 12-9.6 22.9-20.3 34.8-30.1-1.7 1.2-3.7 2.2-5.4 3.5 18.7-16.2 38.6-32.4 57.3-48.6q1.9-1.9 3.8-3.8c0 0 0-1.3 1.3-2.5 5.1-7.7 10.2-14.1 14-20.4-56.1 48.4-110.9 96.8-167 145.3q-24.8 21-49.7 42c-2.5 1.3-5.1 3.9-5.1 6.4zm144-117.3q0.7-0.6 1.4-1.1-0.7 0.6-1.4 1.1zm9-6.3q-1.1 0.8-2.2 1.7 1.2-0.8 2.2-1.7zm-123.7 103.2q-12.5 10.7-25.1 21.3c11.4-9 23-18.3 34.1-27.7-3.9 2.6-6.4 3.9-9 6.4zm-25.1 21.3c-5.7 4.5-11.4 8.9-16.9 13.1-1.3 1.3-2.6 1.3-3.8 2.6-1.3 1.2-2.6 1.2-3.9 2.5 0 0-1.2 0-1.2 1.3 0 0 0 1.3 0 2.5l1.2-1.2q12.3-10.4 24.6-20.8zm151.1-116.8c-8.8 5.8-17.5 12.4-25.3 19-8.9 6.4-17.8 15.3-26.7 23q-9.7 8.3-19.5 16.6c7.3-5.9 14.5-11.9 22-17.9q21-17.2 42.1-34.4c2.3-2.3 5-4.6 7.4-6.3zm-101 83c-1.3 0.9-2.9 2-4.6 3.6q2.3-1.8 4.6-3.6zm1.8-1.5c7.7-5.1 14-11.5 20.4-16.6q3.7-3.1 7.3-6.3c-9.8 8.1-19.5 16.2-29.5 24.4 0.7-0.6 1.3-1 1.8-1.5zm103.2-84.1c-1 0.5-2.4 1.4-4 2.6q2-1.4 4-2.6zm26.8-25.5c1.3-1.3 3.8-2.6 3.8-3.8-6.3 5.1-14 11.4-20.4 16.5-7.6 5.1-14 11.5-20.4 16.6-1.2 1.3-2.5 1.3-2.5 2.5 12.7-10.2 26.8-21.6 39.5-31.8zm37 5.1c-7.7 6.3-16.6 12.7-24.3 19.1-1.2 1.3-2.5 1.3-3.8 2.5-1.2 1.3-1.2 2.6-2.5 3.9-3.8 3.8-6.4 7.6-8.9 11.4 14-12.7 26.7-25.5 39.5-36.9zm100.6-289.3q2-2 3.9-3.9c0-1.2 1.2-1.2 1.2-2.5 0-1.3 1.3-1.3 1.3-2.6 8.9-10.2 17.9-17.8 26.8-28-2.6-1.3-3.8-1.3-6.4-2.6q-13.4 13.4-26.8 26.8c7.7-8.9 16.6-17.8 24.3-26.8-1.3-1.2-2.6-1.2-2.6-1.2-1.3 0-2.5 2.5-3.8 3.8-3.8 3.8-8.9 7.6-12.8 12.7-3.8 2.6-6.3 6.4-8.9 9-2.5 2.5-6.4 6.3-8.9 8.9-14 15.3-28 29.3-42.1 44.6-11.4 12.7-22.9 24.2-34.4 35.7-2.5 3.8-6.3 6.4-8.9 8.9q-7.6 7.6-15.3 15.3c0 1.3-1.3 2.5-1.3 2.5q2-1.9 3.9-3.8c35.7-33.1 72.6-66.3 110.8-96.8zm45.9-104.6c-3.8 2.6-7.6 5.1-11.4 9 1.2 1.2 1.2 1.2 2.5 1.2 2.6-2.5 6.4-6.3 8.9-8.9 0 0 1.3-1.3 0-1.3zm-5.1 49.7c-2.5 2.6-5.1 3.9-6.3 6.4 0 1.3-1.3 1.3 0 1.3 2.5 1.3 3.8 2.5 6.3 2.5 1.3-1.2 3.9-3.8 5.1-5.1 0-1.2 1.3-1.2 1.3-2.5-2.5-1.3-3.8-2.6-6.4-2.6zm-10.2 5.1c0 0-1.2 0-1.2 1.3 0 0 0 0 1.2 0 2.6-2.5 3.9-5.1 6.4-7.6h-1.3c-1.2 1.2-2.5 3.8-5.1 6.3zm16.6 182.3q-0.3 0.2-0.5 0.4 4.1-2.8 8.1-5.5c-3.8 1.3-6.3 2.6-7.6 5.1zm-0.5 0.4c-16.5 11.2-33 23.1-50.5 34-5.1 3.8-10.2 7.7-14 11.5-12.7 10.2-25.5 21.7-37 31.9-3.8 2.5-6.3 6.3-8.9 10.2q55.2-43.8 110.4-87.6zm-86.2 54.4c-2.5 1.3-3.8 2.6-5.1 3.8 0 1.3-1.2 1.3-1.2 2.6-1.3 2.5-2.6 3.8-3.9 6.4 5.1-5.1 11.5-10.2 17.9-15.3 2.5-1.3 5.1-2.6 6.4-5.1-5.1 3.8-10.2 6.3-14.1 7.6zm98.2-335.2c-7.7-3.8-17.9-7.6-28.1-10.2 0 0-2.5 1.3-1.2 1.3 8.9 2.5 19.1 6.4 29.3 8.9zm3.8-66.3c1.3-1.2 2.5-1.2 2.5-2.5-2.5-5.1-5.1-11.5-7.6-16.6-7.7 3.8-17.8 8.9-26.8 12.8 9 3.8 16.6 6.3 25.5 8.9 1.3 0 3.8 1.3 3.8 1.3 1.3-1.3 2.6-2.6 2.6-3.9zm116 226.9c-3.9-1.3-6.4-2.5-10.2-3.8-24.2 20.4-49.7 42-73.9 62.4 2.5-2.5 3.8-3.8 6.3-6.3-10.2 7.6-20.4 15.3-29.3 22.9-3.8 2.5-6.4 5.1-10.2 8.9 39.5-28 79-56.1 117.3-84.1zm20.4-20.4c-2.6-1.3-6.4-1.3-9-2.5-3.8 3.8-8.9 7.6-12.7 11.4 3.8 1.3 6.4 2.6 10.2 3.9 3.8-2.6 6.4-6.4 10.2-10.2 0-1.3 1.3-1.3 1.3-2.6zm16.5-381.1c0-6.4-1.2-12.7-1.2-19.1-7.7-16.6-15.3-34.4-24.3-52.3 0 1.3 0 3.9 0 5.1 0 2.6 0 3.9 0 5.1 0 1.3 1.3 2.6 1.3 3.9 7.7 19.1 16.6 38.2 24.2 57.3zm42.1 460.1c-1.3-2.5-2.6-3.8-3.8-5.1 10.2 19.1 19.1 38.3 29.3 57.4q0-9.6 0-19.1c-7.7-11.5-16.6-23-25.5-33.2zm-6.4-62.4c2.6 3.8 5.1 6.3 7.7 10.2-1.3-2.6-2.6-6.4-3.9-8.9-1.2 0-2.5 0-3.8-1.3zm-15.3-421.9c3.8 6.4 6.4 12.7 8.9 19.1 0-2.5 0-5.1 0-6.4-3.8-6.3-6.3-12.7-8.9-17.8 0 1.3 0 2.6 0 5.1zm5.1 37c1.3 0 3.8-1.3 3.8-2.6 0 0 0-1.3 0-2.5 0-2.6 0-6.4 0-9 0-1.2-1.2-3.8-2.5-5.1-2.6-3.8-5.1-8.9-6.4-12.7 1.3 5.1 1.3 11.5 1.3 16.6 0 2.5 0 5.1 0 6.3 0 1.3 1.3 3.9 2.5 5.1 1.3 1.3 1.3 3.9 1.3 3.9zm11.5 442.2c-1.3-2.5-2.6-6.3-3.8-8.9-1.3 0-1.3-1.3-1.3-2.5-1.3-1.3-2.6-1.3-2.6-2.6-1.2-1.3-1.2-2.5-2.5-2.5 2.5 6.3 5.1 11.4 10.2 16.5zm31.8 133.9q0-5.8 0-11.5c0-2.6 0-6.4 0-8.9-1.2-3.9-2.5-6.4-3.8-9-10.2-19.1-20.4-40.7-30.6-58.6 1.3 6.4 2.6 11.5 3.9 17.9 5.1 16.5 10.2 29.3 12.7 34.4 3.8 6.3 11.5 21.6 17.8 35.7zm224.3 207.7c7.7 12.8 14.1 26.8 23 38.2 7.6 10.2 16.6 20.4 25.5 30.6 0 0 1.3 2.6 1.3 1.3-2.6-7.6-7.7-12.7-11.5-19.1-7.7-11.5-16.6-23-25.5-34.4-2.6-3.8-6.4-8.9-8.9-12.8q-1.9-1.9-3.9-3.8zm-71.3-446.1l1.3-1.3c-14.1-3.8-29.4-7.6-43.4-11.4 14 3.8 28.1 8.9 42.1 12.7zm-26.8 43.4c-6.4-1.3-12.7-2.6-19.1-5.1 2.5 5.1 5.1 8.9 7.6 14 6.4 1.2 11.5 3.8 17.9 5.1-1.3-5.1-3.8-8.9-6.4-14zm-31.8-96.9c-1.3-1.3-2.6-2.6-5.1-2.6q1.9 3.9 3.8 7.7c14 3.8 28 8.9 42 12.7 1.3 0 0 0 0 0-12.7-6.3-26.7-11.4-40.7-17.8zm22.9-62.5c-19.1-6.3-39.5-14-58.6-21.6-2.6 1.2-5.1 2.5-6.4 5.1 3.8 6.3 6.4 14 10.2 21.6 11.5 3.9 21.7 9 31.9 14.1 3.8-3.9 7.6-6.4 11.4-10.2 5.1-3.9 8.9-6.4 11.5-9zm-42.1 53.6h-1.2c-2.6 2.5-3.9 3.8-6.4 6.3 3.8 1.3 8.9 2.6 12.7 3.9-1.2-3.9-3.8-7.7-5.1-10.2zm-21.6-11.5c1.2 3.8 2.5 6.4 3.8 10.2l1.3-1.3c2.5-1.3 3.8-2.5 5.1-3.8-3.9-1.3-7.7-2.6-10.2-5.1zm85.4-61.2c-19.2-7.6-39.5-14-58.7-21.6-1.2 0-1.2 1.2-2.5 1.2-1.3 0-2.6 1.3-1.3 1.3 19.1 6.4 39.5 14 59.9 20.4 0 0 1.3-1.3 2.6-1.3zm221.7 79q0.1 0 0.2 0c-3.4-1.1-7-2.4-10.7-3.6q5.4 1.9 10.5 3.6zm0.2 0c9.1 3.2 16.8 5.9 21.5 7.7 0-1.3-1.3-1.3-2.6-1.3-5.1-1.3-10.2-3.8-14-5.1-1.2 0-3.6-1.1-4.9-1.3zm-10.7-3.6c-59-20.7-146.9-52.4-199.8-72.8-1.2 0-2.5 0-2.5 1.2 49.7 17.9 98.1 34.5 147.8 52.3 9.4 3.9 33.4 12.1 54.5 19.3zm-139.9-53.7c42.1 15.3 121.1 43.3 164.4 57.3 0 0 1.3 1.3 2.6 1.3 1.3 1.3 3.8 1.3 5.1 0-1.3-1.3-2.6-1.3-3.8-1.3-1.3 0-2.6-1.2-3.9-1.2-43.3-14.1-122.3-42.1-164.4-56.1zm-180.9-95.6c0 1.3-2.6 1.3-2.6 2.5 0 1.3 0 1.3 0 1.3 1.3 1.3 5.1 2.6 6.4 2.6 28-24.2 57.3-45.9 84.1-70.1 17.8-15.3 37-31.9 54.8-47.2 10.2-8.9 19.1-16.6 28-24.2 17.9-15.3 37-30.6 54.8-47.2 19.2-16.5 38.3-31.8 56.1-47.1 10.2-8.9 20.4-17.9 29.3-25.5l1.3-1.3c17.8-15.3 35.7-29.3 52.2-44.6 5.1-3.8 9-7.6 14.1-11.5 22.9-19.1 45.8-39.5 61.1-66.2-10.2 6.3-20.3 14-30.5 21.6-28.1 23-56.1 47.2-82.9 71.4-19.1 15.3-36.9 31.9-54.8 48.4-36.9 33.2-72.6 65-108.3 98.2-14 12.7-26.8 25.5-40.8 36.9-5.1 3.9-8.9 7.7-14 11.5-19.1 15.3-37 30.6-56.1 47.2-3.8 2.5-8.9 7.6-14 11.4-12.8 10.2-25.5 21.7-38.2 31.9zm493.2-261.3c-15.3 6.4-29.3 12.8-43.4 20.4-7.6 3.8-14 6.4-21.6 10.2-7.7 2.6-14 6.4-21.7 10.2-25.5 14-51 28-75.2 44.6-2.5 1.3-3.8 2.6-5.1 3.8 23-12.7 47.2-25.5 71.4-38.2 3.8-2.6 7.6-3.8 11.5-6.4 28-15.3 56-29.3 84.1-44.6zm54.8-91.8c2.5 0 5.1-1.2 7.6-1.2q0.5-0.1 0.9-0.2c-3.5 0.3-6.9 0.9-9.8 1.4-14 2.6-28 6.4-40.8 10.2-17.8 5.1-34.4 11.5-51 17.9 28.1-10.2 61.2-21.7 93.1-28.1zm8.5-1.4c4.4-0.5 8.9-0.5 13.1 0.2 1.3 0 2.5 0.3 3.8 0.7-0.3-0.7-1.4-0.7-2.5-0.7q-7.2-1.8-14.4-0.2zm17 1.4q0.5 0 1.1 0-0.6-0.2-1.2-0.5 0.1 0.2 0.1 0.5zm-178.5 98.2c-6.3 5.1-12.7 10.2-16.5 14 11.4-6.4 25.5-14 38.2-20.4 2.6-2.5 35.7-17.8 53.5-25.5q9.6-3.8 19.1-7.6 9.6-3.8 19.2-7.7c11.4-5.1 22.9-10.2 34.4-16.5 5.1-2.6 11.4-5.1 15.3-9 0-1.2 0-1.2 0-1.2-1.3 1.2-3.9 1.2-6.4 1.2-5.1 1.3-8.9 2.6-14 3.9-20.4 6.3-39.5 12.7-58.7 19.1-12.7 5.1-25.4 8.9-36.9 14-11.5 5.1-22.9 12.7-33.1 19.1 1.2 2.6 2.5 3.8 2.5 3.8 0 0-2.5 2.6-3.8 3.9-3.8 3.8-7.7 7.6-12.8 8.9zm-379.7 337.7c-1.3 1.3-3.9 2.6-5.1 3.9 2.5 1.2 6.3 2.5 8.9 3.8q-1.9-3.8-3.8-7.7zm66.2-200.1c-16.3 16.4-32.7 32.7-49 48.9q-4 3.4-7.9 6.9c4.4-4.5 8.9-9 13.6-13.7 14-14 29.3-29.3 43.3-42.1zm-72 71.3q-6.1 5.8-12.1 11.6l-1.3 1.3c-1.2 0 0 1.2 0 1.2 1.3 0 1.3-1.2 1.3-1.2l1.3-1.3c3.6-4 7.2-7.8 10.8-11.6zm-29.9-76.4c5.1-5.1 10.2-11.4 15.3-16.5 15.3-16.6 31.8-33.2 47.1-49.7 20.4-21.7 42.1-44.6 62.5-66.3-12.8 11.5-26.8 22.9-39.5 34.4-2.6 1.3-5.1 3.8-7.7 6.4-5.1 5.1-10.2 8.9-15.3 14-15.3 14-31.8 28-47.1 42.1-3.9 2.5-7.7 6.3-11.5 10.1-1.3 1.3-3.8 2.6-3.8 3.9 0 1.2 0 3.8 0 5.1 0 5.1 0 11.4 0 16.5zm1.2 57.4c0 3.8 2.6 5.1 6.4 11.5 2.6-2.6 5.1-5.1 6.4-6.4 5.1-6.4 11.5-11.5 17.8-17.9 58.7-58.6 116-115.9 173.4-173.3 1.2-1.3 1.2-2.5 2.5-3.8 2.6-2.6 3.8-3.8 6.4-6.4 11.4-12.7 24.2-24.2 35.7-36.9 48.4-49.8 96.8-98.2 144-147.9-9 7.7-17.9 14-26.8 21.7-8.9 6.3-17.8 14-26.8 21.6q-19.1 17.2-38.2 34.5c-3.8 3.8-8.9 7.6-12.7 11.4-25.5 23-49.7 45.9-74 70.1-7.6 8.9-16.5 16.6-24.2 24.2-16.5 16.6-33.1 31.9-48.4 48.5-2.5 2.5-3.8 3.8-6.4 6.3-14 14.1-26.7 28.1-40.7 43.4-10.2 10.2-20.4 20.4-29.4 30.6-6.3 6.3-11.4 12.7-17.8 19.1-14 14-26.8 29.3-40.8 43.3-2.5 1.3-6.4 5.1-6.4 6.4zm12.8 358.1c5.1 2.6 8.9 3.9 14 5.1l-14-20.4q0 7.7 0 15.3zm1.3 95.6c0 11.5 1.2 24.2 1.2 35.7 11.5 23 24.2 45.9 35.7 68.8 6.4 11.5 11.5 23 17.9 34.5 5.1 11.4 11.4 22.9 16.5 33.1 0 0 1.3 2.5 1.3 1.3-22.9-58.7-47.2-117.3-72.6-173.4zm103.2 86.7q-11.5-38.2-19.1-76.5l-62.5-90.5c-7.6-1.2-14-3.8-21.6-6.3 0 2.5 0 6.3 0 8.9 0 2.5 0 6.4 0 8.9 0 1.3 1.2 2.6 1.2 3.8 2.6 7.7 5.1 14 7.7 20.4 1.3 3.8 3.8 7.7 5.1 10.2 21.6 30.6 44.6 59.9 66.3 90.5q11.4 15.3 22.9 30.6zm11.5-197.6c0-1.2-2.6-2.5-3.9-2.5-5.1-1.3-10.2-2.6-14-2.6 0-1.2-1.3-1.2 0 0 6.4 2.6 11.5 3.9 17.9 5.1zm0 181c6.3 19.1 12.7 38.3 20.4 57.4 1.2 2.5 1.2 5.1 2.5 6.4q1.9 1.9 3.8 3.8c16.6 20.4 33.2 42 49.7 62.4zm44.6-188.6c-15.3-3.8-29.3-8.9-44.6-12.7 1.3 3.8 3.9 6.3 5.1 10.2 0 1.2 0 2.5 1.3 3.8 113.4 31.8 226.9 63.7 340.3 94.3-57.4-19.1-116-37-173.3-54.8-17.9-5.1-35.7-11.5-53.6-17.9-2.5-1.2-6.3-2.5-10.2-3.8-22.9-7.6-44.6-12.7-65-19.1zm401.5 123.6c2.5 0 5.1 0 5.1 2.6 0 1.3 0 2.5-1.3 3.8-8.9-2.5-17.8-6.4-26.8-8.9-5.1-1.3-8.9-2.6-14-3.8-14-2.6-28-6.4-42-10.2q-13.4-3.9-26.8-7.7c-37-10.2-73.9-20.4-110.9-29.3-36.9-10.2-73.9-19.1-110.8-29.3-28.1-6.4-54.9-14-82.9-21.7-10.2-2.5-19.1-5.1-28-7.6 0 2.5 2.5 1.2 5.1 2.5 1.2 0 1.2 0 1.2 0 7.7 2.6 15.3 3.8 23 6.4 73.9 20.4 149.1 42.1 223 62.4q42.1 11.5 84.1 23c35.7 8.9 70.1 19.1 105.8 28 2.6 1.3 6.4 1.3 7.7 1.3 2.5-1.3 3.8-5.1 3.8-7.6 1.2-3.9 1.2-7.7 0-10.2-1.3 0-2.6 0-3.8 1.2-2.6 2.6-5.1 3.9-11.5 5.1zm1.3-2.5c0 0 1.2 0 1.2 1.3 0-1.3 0-1.3-1.2-1.3zm-207.8-62.5c26.8 9 54.8 16.6 81.6 25.5 22.9 6.4 47.1 14 71.4 21.7 3.8 1.3 6.3 2.5 10.2 2.5-2.6-1.2-6.4-2.5-10.2-3.8q4.4 1.2 8.8 2.4-1.9-0.5-3.7-1.1c-2.6-1.3-3.9-1.3-7.7-2.6-51-15.3-100.7-30.6-150.4-44.6zm186.6 56q3.6 1.3 7.1 2.7c1.3 1.2 3.9 2.5 5.1 2.5 3.9 1.3 6.4 1.3 9 1.3q-10.6-3.3-21.2-6.5zm-24.8-7.7q12.4 3.9 24.8 7.7c-8-2.9-16.3-5.3-24.8-7.7zm5.2-171.9c-28.1-3.8-167 0-248.5 2.5 1.2 2.6 2.5 5.1 2.5 7.7 96.9-2.6 274-7.7 246-10.2zm-800.4-632.2c0 1.3 0 0 0 0zm-1.3-1.2zm0-2.6c0 1.3 0 0 0 0zm0 1.3zm-1.2-2.6zm0 0c0 1.3 0 0 0 0zm2.5 6.4zm-314.8 1073.2c-1.2 1.2 0 0 0 0zm818.2-643.7c0 0 1.3 0 0 0z"/>
	</g>
</svg>